<?xml version="1.0" standalone="no"?><!DOCTYPE svg PUBLIC "-//W3C//DTD SVG 1.1//EN" "http://www.w3.org/Graphics/SVG/1.1/DTD/svg11.dtd"><svg t="1540861932357" class="icon" style="" viewBox="0 0 4096 1024" version="1.1" xmlns="http://www.w3.org/2000/svg" p-id="5237" xmlns:xlink="http://www.w3.org/1999/xlink" width="80" height="20"><defs><style type="text/css"></style></defs><path d="M491.52 282.624v69.632h186.368V737.28h69.632V352.256h186.368v-69.632zM2349.056 606.208V282.624h-69.632v323.584c0 71.68 59.392 131.072 131.072 131.072h126.976v-69.632h-126.976c-34.816 0-61.44-26.624-61.44-61.44M2093.056 606.208V282.624h-69.632v323.584c0 71.68 59.392 131.072 131.072 131.072h71.68v-69.632h-71.68c-34.816 0-61.44-26.624-61.44-61.44M1409.024 286.72c-18.432-8.192-40.96-6.144-57.344 6.144L1286.144 348.16c-43.008 34.816-102.4 34.816-145.408 0l-65.536-53.248c-16.384-12.288-36.864-16.384-57.344-6.144-18.432 8.192-30.72 26.624-30.72 47.104V737.28h69.632V368.64l40.96 32.768c32.768 26.624 73.728 40.96 116.736 40.96s83.968-14.336 116.736-40.96l40.96-32.768v368.64h69.632V335.872c-4.096-20.48-14.336-38.912-32.768-49.152M1650.688 516.096l69.632-157.696c2.048-4.096 6.144-6.144 8.192-6.144s6.144 2.048 8.192 6.144l69.632 159.744-155.648-2.048z m77.824-233.472c-32.768 0-59.392 18.432-71.68 47.104L1480.704 737.28H1556.48l65.536-151.552h217.088L1904.64 737.28h75.776L1802.24 329.728c-14.336-28.672-40.96-47.104-73.728-47.104zM3149.824 282.624h-34.816V327.68h34.816c26.624 0 49.152 20.48 55.296 45.056l-79.872 59.392 26.624 34.816 55.296-40.96v67.584l-81.92 61.44 26.624 34.816 55.296-40.96v38.912c0 38.912-18.432 75.776-51.2 98.304l-26.624 18.432 26.624 34.816 26.624-18.432c43.008-30.72 67.584-81.92 67.584-135.168v-204.8c0-53.248-45.056-98.304-100.352-98.304M3548.03712 313.344v-38.912h-45.056v38.912h-124.928v-38.912h-43.008v38.912h-53.248v45.056h53.248v43.008h43.008v-43.008h124.928v43.008h45.056v-43.008h51.2v-45.056zM2863.104 428.032V327.68h188.416v-45.056h-423.936V327.68h188.416v122.88h-208.896v43.008h202.752c-24.576 98.304-100.352 180.224-202.752 204.8l10.24 43.008c104.448-26.624 184.32-102.4 221.184-198.656 36.864 96.256 118.784 172.032 221.184 198.656l10.24-43.008c-102.4-26.624-178.176-106.496-202.752-204.8h202.752V450.56h-210.944c4.096-8.192 4.096-14.336 4.096-22.528M3282.944 430.08v223.232c0 47.104 36.864 83.968 83.968 83.968h147.456c47.104 0 83.968-36.864 83.968-83.968V430.08h-315.392z m135.168 262.144h-53.248c-22.528 0-38.912-18.432-38.912-38.912v-49.152h92.16v88.064z m0-131.072h-92.16v-86.016h92.16v86.016z m137.216 92.16c0 22.528-18.432 38.912-38.912 38.912h-53.248v-88.064h92.16v49.152z m0-92.16h-92.16v-86.016h92.16v86.016z" p-id="5238" fill="#fc1f3f"></path></svg>